# xmcd
#
# Track frame offsets:
#	150
#	13540
#	52003
#	91714
#	132597
#	143927
#	198914
#	252639
#	295316
#
# Disc length: 4091 seconds
#
# Revision: 1
# Processed by: cddbd v1.5PL3 Copyright (c) Steve Scherf et al.
# Submitted via: EasyCDDAExtractor 5.1.0
#
DISCID=860ff909
DTITLE=Graveland - Following the Voice of Blood
DYEAR=1900
DGENRE=
TTITLE0=Intro
TTITLE1=White Hands's Power
TTITLE2=Thurisaz
TTITLE3=Following the Voice of Blood
TTITLE4=Forge of Souls
TTITLE5=Raise the Swords
TTITLE6=And the Horn was Sounding Far Away
TTITLE7=Fed by the Beasts
TTITLE8=Outro
EXTD=
EXTT0=
EXTT1=
EXTT2=
EXTT3=
EXTT4=
EXTT5=
EXTT6=
EXTT7=
EXTT8=
PLAYORDER=
